HIERARCHY
ROOT Hips
{
	OFFSET -0.179506 -22.333345 2.821913
	CHANNELS 6 Xposition Yposition Zposition Zrotation Yrotation Xrotation 
	JOINT LeftUpLeg
	{
		OFFSET 6.951974 -9.140623 -0.681533
		CHANNELS 3 Zrotation Yrotation Xrotation
		JOINT LeftLeg
		{
			OFFSET 3.427654 -37.519855 -0.449580
			CHANNELS 3 Zrotation Yrotation Xrotation
			JOINT LeftFoot
			{
				OFFSET -1.359570 -39.796059 -4.369333
				CHANNELS 3 Zrotation Yrotation Xrotation
				JOINT LeftToe
				{
					OFFSET 2.635814 -5.579078 11.928840
					CHANNELS 3 Zrotation Yrotation Xrotation
					End Site
					{
						OFFSET 0.000000 0.000000 0.000000
					}
				}
			}
		}
	}
	JOINT RightUpLeg
	{
		OFFSET -6.767048 -9.052170 -0.431982
		CHANNELS 3 Zrotation Yrotation Xrotation
		JOINT RightLeg
		{
			OFFSET -3.829005 -38.256897 -0.885003
			CHANNELS 3 Zrotation Yrotation Xrotation
			JOINT RightFoot
			{
				OFFSET 1.577377 -39.841461 -4.231180
				CHANNELS 3 Zrotation Yrotation Xrotation
				JOINT RightToe
				{
					OFFSET -2.537174 -4.814398 12.334795
					CHANNELS 3 Zrotation Yrotation Xrotation
					End Site
					{
						OFFSET 0.000000 0.000000 0.000000
					}
				}
			}
		}
	}
	JOINT Spine
	{
		OFFSET -0.253288 10.896323 -2.669631
		CHANNELS 3 Zrotation Yrotation Xrotation
		JOINT Spine1
		{
			OFFSET 0.548704 13.518043 0.109247
			CHANNELS 3 Zrotation Yrotation Xrotation
			JOINT Spine2
			{
				OFFSET 0.145701 5.292222 2.542457
				CHANNELS 3 Zrotation Yrotation Xrotation
				JOINT Neck
				{
					OFFSET -0.277840 21.387037 -4.285703
					CHANNELS 3 Zrotation Yrotation Xrotation
					JOINT Head
					{
						OFFSET 0.515184 6.496960 5.134897
						CHANNELS 3 Zrotation Yrotation Xrotation
						End Site
						{
							OFFSET 0.000000 0.000000 0.000000
						}
					}
				}
				JOINT LeftShoulder
				{
					OFFSET 7.884473 12.174932 -3.408961
					CHANNELS 3 Zrotation Yrotation Xrotation
					JOINT LeftArm
					{
						OFFSET 9.097692 3.046888 -0.886815
						CHANNELS 3 Zrotation Yrotation Xrotation
						JOINT LeftForeArm
						{
							OFFSET 25.961220 -1.277207 -2.745643
							CHANNELS 3 Zrotation Yrotation Xrotation
							JOINT LeftHand
							{
								OFFSET 24.923361 0.898606 -0.117091
								CHANNELS 3 Zrotation Yrotation Xrotation
								End Site
								{
									OFFSET 0.000000 0.000000 0.000000
								}
							}
						}
					}
				}
				JOINT RightShoulder
				{
					OFFSET -8.175920 11.883285 -3.861528
					CHANNELS 3 Zrotation Yrotation Xrotation
					JOINT RightArm
					{
						OFFSET -9.601238 3.255117 -0.914307
						CHANNELS 3 Zrotation Yrotation Xrotation
						JOINT RightForeArm
						{
							OFFSET -25.374195 -1.332924 -2.140099
							CHANNELS 3 Zrotation Yrotation Xrotation
							JOINT RightHand
							{
								OFFSET -25.529810 0.777228 -0.555919
								CHANNELS 3 Zrotation Yrotation Xrotation
								End Site
								{
									OFFSET 0.000000 0.000000 0.000000
								}
							}
						}
					}
				}
			}
		}
	}
}
MOTION
Frames: 13
Frame Time: 0.033333
159.633713 158.845535 96.537819 -46.375195 -1.705646 88.752897 1.922791 -5.697525 -13.450896 -6.697555 -6.559098 13.720604 7.701472 11.490415 -3.949668 nan nan nan -8.565719 -0.664136 -0.258666 9.211362 -2.522234 73.003941 11.673997 2.041806 4.115257 nan nan nan -4.472039 5.869080 11.272011 1.310960 -2.838372 7.465285 -0.582054 0.844906 -2.741339 -5.969520 -0.195000 8.841461 3.636865 0.195351 -9.682156 -26.994990 -7.236360 1.347898 -52.860221 -3.397333 14.908177 10.912844 -16.321502 -7.165195 0.197406 -21.913847 -15.440940 28.750058 9.151053 1.634014 61.194290 -1.831747 8.745273 -14.647968 16.395518 -17.625816 2.987768 13.503361 -14.896949 
159.086792 158.187927 96.717270 -45.856191 -1.444777 88.448806 1.882040 -5.425669 -12.467089 -6.718931 -7.499889 13.573230 7.702666 11.581066 -4.294895 nan nan nan -8.108211 -0.790389 -1.344713 9.552875 -3.229092 75.971525 11.611254 2.387181 3.509117 nan nan nan -4.365796 5.394694 11.167494 1.491721 -2.826321 7.667889 -0.516190 0.721327 -2.880263 -6.097446 -0.325285 9.355971 3.821396 0.235228 -9.770564 -27.264500 -7.337195 1.397238 -52.553749 -3.779260 14.714528 11.079292 -16.898881 -7.462567 0.326277 -22.022399 -14.773396 28.889402 9.132459 1.657679 61.113991 -2.095002 8.534967 -14.697660 16.310627 -17.554217 3.050574 13.641883 -15.018430 
158.546494 157.556473 96.892189 -45.457288 -1.250854 88.216486 1.921817 -5.495760 -11.460419 -6.778357 -8.133502 13.213651 7.636954 11.878486 -4.517390 nan nan nan -7.680298 -0.887565 -2.625433 9.732762 -3.866833 78.878250 11.371092 2.511894 2.825592 nan nan nan -4.400253 5.045500 10.995934 1.688821 -2.828329 7.754150 -0.378209 0.618200 -2.878763 -6.221931 -0.372359 9.722765 3.969245 0.335825 -9.666150 -27.450950 -7.384752 1.371649 -52.330881 -4.193266 14.566979 11.208456 -17.535001 -7.692750 0.522205 -22.047195 -14.270307 28.939111 8.980126 1.600692 61.087269 -2.230141 8.341460 -14.749021 16.299051 -17.494357 3.025624 13.613570 -15.154900 
157.991760 156.900818 97.059067 -45.059414 -1.101931 87.952391 1.900702 -5.482635 -10.364050 -6.841115 -8.848074 12.795745 7.603910 12.157101 -4.846366 nan nan nan -7.315531 -1.025021 -3.810381 9.916855 -4.486784 81.544871 10.877738 2.577753 1.784570 nan nan nan -4.470238 4.669736 10.801718 1.893749 -2.809974 7.847891 -0.279409 0.544691 -2.851551 -6.314185 -0.425531 10.072665 4.087002 0.477097 -9.390346 -27.617997 -7.514106 1.486408 -52.100701 -4.616442 14.356643 11.333455 -18.207618 -7.999912 0.741362 -21.906295 -13.880564 29.008412 8.874140 1.589799 61.074471 -2.444713 8.152432 -14.806186 16.417959 -17.370314 2.895722 13.508204 -15.137194 
157.444824 156.238861 97.217087 -44.801037 -0.914354 87.675590 1.931123 -5.438209 -9.194691 -6.888311 -9.472658 12.284870 7.696233 12.471883 -5.173349 nan nan nan -6.932874 -1.153945 -4.989924 10.185293 -4.989799 84.022172 10.256180 2.620210 0.487590 nan nan nan -4.416928 4.338518 10.553806 2.049932 -2.744292 8.105656 -0.263724 0.478102 -2.885072 -6.311857 -0.388038 10.367428 4.213667 0.519819 -9.081550 -27.632936 -7.697329 1.590955 -51.973754 -5.057766 14.146374 11.346409 -18.909818 -8.297654 1.370672 -21.650447 -13.513482 29.056417 8.860375 1.679027 61.133349 -2.609189 7.928895 -14.821275 16.428018 -17.580907 2.266062 13.465391 -15.412735 
156.910736 155.581345 97.378273 -44.557873 -0.739824 87.429264 1.920876 -5.341945 -8.104685 -6.841429 -10.041866 11.848578 7.759059 12.704161 -5.481994 nan nan nan -6.578139 -1.243055 -6.258596 10.317352 -5.494552 86.338522 9.752616 2.611846 -0.653925 nan nan nan -4.383338 4.032244 10.290941 2.199046 -2.682100 8.377533 -0.203434 0.368650 -2.917495 -6.345265 -0.310851 10.659016 4.319721 0.617123 -8.832300 -27.590210 -7.828171 1.587100 -51.877923 -5.371860 14.173223 11.222917 -19.796365 -8.474887 2.810612 -21.667529 -13.886380 28.991699 8.836521 1.733011 61.233596 -2.708789 7.806416 -14.652279 16.290970 -17.967584 0.778927 13.796884 -16.461007 
156.360641 154.950592 97.540108 -44.216800 -0.501603 87.196679 1.972241 -5.071063 -7.144276 -6.783167 -10.720629 11.595814 7.667499 12.770822 -5.826555 nan nan nan -6.128387 -1.139586 -7.525896 10.230986 -6.258299 88.392221 9.269776 2.573395 -1.775979 nan nan nan -4.376936 3.561319 10.087437 2.363148 -2.635444 8.575171 -0.083669 0.257678 -2.934013 -6.309144 -0.145091 10.946629 4.379288 0.692358 -8.630801 -27.561776 -7.828977 1.519584 -51.806202 -5.649391 14.257276 11.213680 -20.622464 -8.715724 3.974856 -22.097761 -14.600094 28.853560 8.829339 1.718731 61.352877 -2.840232 7.819238 -14.491355 16.167721 -18.172510 -0.250838 14.362794 -17.797507 
155.776001 154.331329 97.705612 -43.981288 -0.209857 86.878595 2.185338 -4.905153 -5.947151 -6.819622 -11.372081 11.105647 7.609377 13.033074 -6.090294 nan nan nan -5.592556 -0.941924 -8.682841 10.251256 -6.976794 90.175512 8.694369 2.448937 -3.071009 nan nan nan -4.330863 3.103676 9.992887 2.515200 -2.575748 8.676157 0.035956 0.216006 -2.840257 -6.232340 0.039956 11.186239 4.444162 0.731191 -8.488772 -27.580085 -7.748836 1.451404 -51.709294 -6.067574 14.121317 11.397994 -21.411992 -9.014441 4.000761 -22.119833 -14.156462 28.781597 8.763260 1.797303 61.422710 -2.856654 7.705237 -14.426190 16.159327 -18.169709 -0.248900 14.427690 -18.304457 
155.217453 153.703430 97.875435 -43.798698 0.022546 86.585871 2.314638 -4.808521 -4.718380 -6.752716 -11.877308 10.494597 7.610108 13.302419 -6.245398 nan nan nan -5.169128 -0.927153 -9.887412 10.258244 -7.473791 91.777935 8.103275 2.316570 -4.341666 nan nan nan -4.267383 2.697959 9.885000 2.627975 -2.553063 8.845279 0.114965 0.190375 -2.870484 -6.119810 0.227284 11.432615 4.387841 0.728315 -8.271417 -27.652052 -7.667280 1.535711 -51.488503 -6.430127 13.833921 11.610448 -22.404160 -9.221239 3.530386 -22.080736 -12.886500 28.786271 8.719850 2.157610 61.496948 -2.764777 7.437794 -14.517626 16.214134 -18.250022 -0.029473 14.383627 -18.258842 
154.687210 153.096146 98.037796 -43.643996 0.219703 86.341149 2.376199 -4.569807 -3.591170 -6.568683 -12.325993 9.939527 7.537107 13.387312 -6.451864 nan nan nan -4.812652 -0.824473 -11.207339 10.119169 -7.981813 93.243100 7.762868 2.257230 -5.585510 nan nan nan -4.241633 2.227706 9.829704 2.729873 -2.456332 9.011391 0.193391 0.163522 -3.052494 -5.969026 0.479506 11.687846 4.304396 0.649859 -8.009261 -27.694215 -7.580197 1.612512 -51.284972 -6.721453 13.614983 11.714877 -23.307730 -9.522640 3.247835 -22.536556 -11.869373 28.747876 8.680304 2.499392 61.666246 -2.783177 7.229189 -14.706314 16.262181 -18.361715 -0.056749 14.668862 -18.388304 
154.154160 152.491196 98.195068 -43.535384 0.437072 86.013638 2.499520 -4.402907 -2.324814 -6.460746 -12.914461 9.291236 7.488972 13.641066 -6.631729 nan nan nan -4.499891 -0.581115 -12.460990 10.075366 -8.587477 94.434610 7.401407 2.151221 -6.688652 nan nan nan -4.211375 1.770246 9.910318 2.861888 -2.313891 8.927292 0.261379 0.140977 -2.953419 -5.889961 0.669675 11.790145 4.339515 0.710752 -7.727273 -27.656675 -7.488234 1.580433 -51.228242 -7.214465 13.573485 11.347883 -23.977632 -10.048923 5.123937 -23.341066 -13.061749 28.689734 8.598432 2.453966 61.778436 -2.952942 7.179622 -14.680328 16.229666 -18.297840 -0.949044 15.040739 -19.072620 
153.633087 151.915527 98.327675 -43.475219 0.669281 85.749426 2.673574 -4.388111 -1.171514 -6.403660 -13.381510 8.701176 7.467336 13.993813 -6.816671 nan nan nan -4.212963 -0.301596 -13.831845 10.140600 -9.247292 95.396092 6.939702 2.079197 -7.611650 nan nan nan -4.112848 1.392049 10.026074 2.959438 -2.238233 8.714945 0.245656 0.065688 -2.775850 -5.740989 0.833211 11.692798 4.424257 0.837218 -7.398680 -27.454190 -7.300355 1.438088 -51.352135 -7.568648 13.718062 11.630897 -24.933512 -10.266067 5.721122 -23.409338 -13.880818 28.720381 8.447309 2.294640 61.859510 -3.090742 7.340957 -14.779797 16.120366 -18.315227 -1.182889 15.052742 -19.583902 
153.118896 151.368011 98.437454 -43.422299 0.897588 85.604451 2.877816 -4.408577 -0.215215 -6.358618 -13.681950 8.196258 7.436509 14.262200 -7.054634 nan nan nan -3.924860 0.017662 -15.355123 10.156069 -9.873631 96.138998 6.713739 2.164237 -8.441226 nan nan nan -4.056036 0.990593 10.054796 3.071373 -2.221654 8.643710 0.203200 -0.025257 -2.697245 -5.520958 1.038060 11.455545 4.481302 0.996912 -7.176954 -27.181739 -6.923513 1.149206 -51.505686 -7.865454 14.001746 12.093973 -25.981247 -10.329011 5.250693 -23.430080 -13.907398 28.722301 8.179393 2.111764 61.987540 -3.040513 7.693987 -14.959425 15.950822 -18.346264 -1.167420 14.960710 -20.016265 
